<svg width="34" height="34" xmlns="http://www.w3.org/2000/svg" xmlns:xlink="http://www.w3.org/1999/xlink" xml:space="preserve" overflow="hidden"><g transform="translate(-1072 -198)"><path d="M1102.28 224.775 1097.85 220.348C1097.25 219.746 1096.44 219.533 1095.66 219.675L1094.1 218.117C1095.48 216.346 1096.3 214.079 1096.3 211.671 1096.3 205.827 1091.51 201.046 1085.67 201.046 1079.83 201.046 1075.05 205.827 1075.05 211.671 1075.05 217.515 1079.83 222.296 1085.67 222.296 1088.08 222.296 1090.31 221.481 1092.12 220.1L1093.68 221.658C1093.53 222.438 1093.75 223.252 1094.35 223.854L1098.78 228.281C1099.27 228.777 1099.91 229.025 1100.55 229.025 1101.18 229.025 1101.82 228.777 1102.32 228.281 1103.24 227.29 1103.24 225.731 1102.28 224.775ZM1085.64 220.135C1080.96 220.135 1077.14 216.31 1077.14 211.635 1077.14 206.96 1080.96 203.135 1085.64 203.135 1090.31 203.135 1094.14 206.96 1094.14 211.635 1094.14 216.31 1090.31 220.135 1085.64 220.135Z"/></g></svg>